<svg width="50" height="50" viewBox="0 0 50 50" fill="none" xmlns="http://www.w3.org/2000/svg">
<path d="M24.7988 11.6729C23.1888 6.16825 14.6826 1.94486 10.6308 0.521245V5.82026C14.366 6.51625 21.6324 10.592 24.7988 12.5429C28.212 9.56911 35.881 6.82206 39.2888 5.82026V0.521245C31.0456 2.54594 26.1941 8.79931 24.7988 11.6729Z" fill="#FFD150"/>
<path d="M21.3795 16.4715L1.01365 7.99822V39.9654L21.855 48.7468H29.2247L49.3529 39.9654V7.61307L28.4323 16.4715H21.3795Z" fill="#A8DBDE"/>
<path d="M21.855 21.1702H28.5115V24.7136H21.855V21.1702Z" fill="#FF5C00"/>
<path d="M21.855 40.5817H28.5115V44.125H21.855V40.5817Z" fill="#FF5C00"/>
<path d="M24.7075 11.7887L6.54596 3.91041L2.9771 7.84957L21.9317 16.5485H28.435L47.1517 7.84957L43.8207 3.91041L24.7075 11.7887Z" fill="#FEB913"/>
<path fill-rule="evenodd" clip-rule="evenodd" d="M39.1347 0.0179464C39.3237 -0.0274373 39.5236 0.0143162 39.6769 0.131172C39.8302 0.248027 39.9197 0.426999 39.9197 0.6165V4.7434C42.2489 4.02335 44.0744 3.69453 44.6386 4.076C45.8793 4.91499 47.12 6.44669 47.8733 7.47316L49.081 6.95522C49.4011 6.81795 49.7749 6.95925 49.9159 7.27083C49.9682 7.38639 49.9812 7.50914 49.9604 7.62486C49.986 7.6918 50 7.76424 50 7.83985V39.7625C50 39.8306 49.9887 39.896 49.9677 39.9573C49.9906 40.2125 49.8471 40.4648 49.5927 40.5741L28.8213 49.499C28.5319 49.8069 28.1156 50 27.6531 50H22.597C22.1224 50 21.6966 49.7968 21.4064 49.4749L0.691248 40.5741C0.571916 40.5229 0.476972 40.4401 0.412165 40.3403C0.171448 40.253 0 40.0272 0 39.7625V7.83985C0 7.69894 0.0485694 7.56907 0.130302 7.46523C0.136222 7.39994 0.153024 7.33446 0.181642 7.27114C0.322489 6.95948 0.696214 6.81798 1.01638 6.95508L2.4741 7.57932C2.49821 7.54612 2.52289 7.5123 2.54812 7.4779C3.30109 6.45141 4.54373 4.91629 5.78636 4.076C6.28182 3.74097 7.75023 3.95381 9.6783 4.49838V0.6165C9.6783 0.427282 9.76757 0.248544 9.92044 0.131669C10.0733 0.0147934 10.2729 -0.027273 10.4617 0.0175624C17.0583 1.58368 20.7104 4.55233 22.7102 7.1791C23.7062 8.48734 24.284 9.6998 24.6138 10.5922C24.7298 10.9062 24.8152 11.1808 24.8774 11.4063C24.9388 11.1812 25.023 10.9074 25.1374 10.5943C25.4634 9.70228 26.0346 8.49001 27.0194 7.18178C28.9968 4.55487 32.6091 1.58481 39.1347 0.0179464ZM28.0411 7.91055C27.2603 8.9477 26.7678 9.91314 26.4608 10.6703C27.2795 10.1333 28.3915 9.43218 29.6762 8.69575C30.0757 8.46671 30.4933 8.23349 30.9251 8.00021C33.2813 6.72721 36.0611 5.45223 38.653 4.84174V1.41436C38.455 1.46743 38.2601 1.52183 38.0683 1.57753C32.6924 3.13797 29.7012 5.70517 28.0411 7.91055ZM27.653 15.3642C27.8932 15.3642 28.1209 15.4163 28.3249 15.5095H29.0695L44.4509 8.94093L46.688 7.9815C46.5843 7.84325 46.4729 7.69792 46.3551 7.54827C45.6564 6.66083 44.8052 5.71935 44.0114 5.1549C44.0052 5.15429 43.9984 5.15368 43.9911 5.15311C43.8697 5.14353 43.672 5.14712 43.3848 5.18107C42.8127 5.24869 42.0389 5.41747 41.1059 5.68075C39.2496 6.20461 36.919 7.05779 34.6192 8.03451C32.3192 9.01133 30.0932 10.0934 28.4402 11.0633C27.6093 11.5508 26.9595 11.989 26.5237 12.3521C26.3051 12.5344 26.1707 12.6728 26.0977 12.7651C26.0958 12.7675 26.094 12.7698 26.0923 12.772C26.0913 12.7734 26.0902 12.7747 26.0892 12.776L26.0857 12.7807C25.9645 13.7855 25.96 14.6891 25.9898 15.3642H27.653ZM22.3282 16.7425H27.9219C27.9522 16.7897 27.9697 16.8456 27.9697 16.9055V20.6439H22.2803V16.9055C22.2803 16.8456 22.2978 16.7897 22.3282 16.7425ZM29.2337 16.8144L44.9615 10.0693L48.5977 8.51649L48.5943 8.5113L48.7333 8.45168V39.5956L29.2364 47.9729V16.9055C29.2364 16.8749 29.2355 16.8446 29.2337 16.8144ZM23.1309 10.303C21.9385 9.56858 20.4043 8.76695 18.7405 7.98743C16.3611 6.71772 13.5581 5.44841 10.945 4.84045V1.41195C11.1491 1.46596 11.3499 1.52137 11.5476 1.5781C16.9871 3.13932 20.0134 5.70773 21.6925 7.91323C22.3588 8.78832 22.8174 9.61226 23.1309 10.303ZM10.0526 5.8972C9.80101 5.81996 9.55614 5.74767 9.319 5.68075C8.38607 5.41747 7.61222 5.24869 7.04012 5.18107C6.75291 5.14712 6.55524 5.14353 6.43386 5.15311C6.42652 5.15368 6.41974 5.15429 6.41351 5.1549C5.61973 5.71935 4.76856 6.66083 4.06982 7.54827C3.95111 7.69904 3.83898 7.84541 3.73459 7.98458L21.3554 15.5095H21.9251C22.1291 15.4163 22.3568 15.3642 22.597 15.3642H24.4352C24.4648 14.691 24.4605 13.7907 24.3403 12.7892C24.23 12.7785 24.1222 12.7396 24.0289 12.6731L24.0243 12.6698L24.0085 12.6586C23.9942 12.6486 23.9726 12.6334 23.944 12.6133C23.8867 12.5732 23.8013 12.5138 23.6899 12.4375C23.4671 12.2848 23.1408 12.0644 22.7293 11.7958C21.9059 11.2582 20.7432 10.5282 19.3873 9.75974C18.9922 9.5358 18.5819 9.3093 18.16 9.08383C17.3982 8.72742 16.6064 8.37459 15.8057 8.03451C13.8527 7.20509 11.8776 6.46475 10.1895 5.93951L10.1836 5.93834C10.1378 5.92913 10.0939 5.91522 10.0526 5.8972ZM1.26665 39.4736L21.0136 47.9583V16.9055C21.0136 16.8922 21.0138 16.8789 21.0142 16.8657L1.26665 8.40928V39.4736ZM22.2845 48.5091C22.3905 48.57 22.4727 48.6577 22.5258 48.7592C22.5487 48.7643 22.5725 48.767 22.597 48.767H27.6531C27.6923 48.767 27.7299 48.7601 27.7646 48.7474C27.8107 48.6636 27.877 48.5898 27.9603 48.5335C27.9665 48.5096 27.9697 48.4845 27.9697 48.4588V44.5234H22.2803V48.4588C22.2803 48.4759 22.2817 48.4927 22.2845 48.5091ZM27.9697 41.4151V43.2904H22.2803V41.4151H27.9697ZM22.2803 40.1821H27.9697V25.1333H22.2803V40.1821ZM27.9697 21.8769V23.9003H22.2803V21.8769H27.9697ZM6.3548 5.16364C6.35471 5.16356 6.35704 5.16291 6.36208 5.16191C6.35742 5.16322 6.3549 5.16372 6.3548 5.16364ZM24.3694 12.8249L24.3701 12.826C24.3703 12.8263 24.3704 12.8266 24.3705 12.8267C24.3706 12.8269 24.3707 12.827 24.3707 12.827C24.3708 12.827 24.3698 12.8249 24.3672 12.8207C24.3676 12.8215 24.368 12.8223 24.3684 12.8229C24.3688 12.8237 24.3691 12.8243 24.3694 12.8249ZM44.0701 5.16364C44.0702 5.16356 44.0679 5.16291 44.0629 5.16191C44.0675 5.16322 44.07 5.16372 44.0701 5.16364ZM26.0543 12.8269C26.0544 12.8268 26.0544 12.8267 26.0545 12.8265C26.0551 12.8257 26.0562 12.8238 26.0577 12.8206C26.0551 12.8249 26.0541 12.827 26.0542 12.827C26.0542 12.827 26.0543 12.8269 26.0543 12.8269Z" fill="black"/>
</svg>
