<svg width="24" height="24" viewBox="0 0 24 24" fill="none" xmlns="http://www.w3.org/2000/svg">
<path d="M12.0036 8.36669C10.0004 8.36669 8.36669 9.99297 8.36669 12.0036C8.36669 14.0069 9.99297 15.6406 12.0036 15.6406C14.0069 15.6406 15.6406 14.0143 15.6406 12.0036C15.6332 10.0004 14.0069 8.36669 12.0036 8.36669Z" fill="currentColor"/>
<path fill-rule="evenodd" clip-rule="evenodd" d="M17.9914 21H6.00863C4.35277 21 3 19.6472 3 17.9914V6.00862C3 4.35277 4.35277 3 6.00863 3H17.9914C19.6472 3 21 4.35277 21 6.00862V17.9914C21 19.6546 19.6546 21 17.9914 21ZM12.0036 16.6238C10.7691 16.6238 9.60857 16.1433 8.73629 15.271C7.86402 14.3987 7.38352 13.2381 7.38352 12.0036C7.38352 10.7691 7.86402 9.60857 8.73629 8.7363C9.60857 7.86402 10.7691 7.38352 12.0036 7.38352C13.2381 7.38352 14.3987 7.86402 15.271 8.7363C16.1433 9.60857 16.6238 10.7691 16.6238 12.0036C16.6238 13.2381 16.1433 14.3987 15.271 15.271C14.3913 16.1433 13.2381 16.6238 12.0036 16.6238ZM18.4114 6.34473C18.4114 6.83466 18.0142 7.23182 17.5243 7.23182C17.0344 7.23182 16.6372 6.83466 16.6372 6.34473C16.6372 5.85481 17.0344 5.45765 17.5243 5.45765C18.0142 5.45765 18.4114 5.85481 18.4114 6.34473Z" fill="currentColor"/>
</svg>
