<svg width="24" height="24" viewBox="0 0 24 24" fill="none" xmlns="http://www.w3.org/2000/svg">
<path fill-rule="evenodd" clip-rule="evenodd" d="M12 21C16.9706 21 21 16.9706 21 12C21 7.02943 16.9706 3 12 3C7.02943 3 3 7.02943 3 12C3 16.9706 7.02943 21 12 21ZM6.98663 10.2239H9.15485V17.1383H6.98663V10.2239ZM15.02 10.0741C14.9401 10.0641 14.8552 10.0591 14.7702 10.0541C13.5562 10.0041 12.8718 10.7236 12.632 11.0333C12.6014 11.0733 12.5786 11.1056 12.563 11.1285C12.5454 11.1542 12.5371 11.1682 12.5371 11.1682V10.2439H10.4638V17.1583H12.632V13.9109C12.632 13.8575 12.6315 13.8036 12.6311 13.7496C12.6275 13.3287 12.6238 12.8927 12.8318 12.5121C13.0317 12.1524 13.3914 11.9725 13.796 11.9725C14.995 11.9725 15.02 13.0566 15.02 13.1566V17.1882H17.1882V12.6769C17.1882 11.1332 16.4039 10.224 15.02 10.0741ZM9.32971 8.07072C9.32971 8.76602 8.76604 9.32971 8.07072 9.32971C7.37541 9.32971 6.81177 8.76602 6.81177 8.07072C6.81177 7.37541 7.37541 6.81177 8.07072 6.81177C8.76604 6.81177 9.32971 7.37541 9.32971 8.07072Z" fill="currentColor"/>
</svg>
